<?xml version="1.0" encoding="utf-8"?>
<svg version="1.1" xmlns:xlink="http://www.w3.org/1999/xlink" width="305px" height="75px" xmlns="http://www.w3.org/2000/svg">
  <defs>
    <mask fill="white" id="clip3">
      <path d="M 38.63333333333334 75  C 16.998666666666665 75  0 58.5  0 37.5  C 0 16.499999999999996  16.998666666666665 0  38.63333333333334 0  L 236.88333333333333 0  L 305 75  L 38.63333333333334 75  Z " fill-rule="evenodd" />
    </mask>
  </defs>
  <g transform="matrix(1 0 0 1 -233 -36 )">
    <path d="M 38.63333333333334 75  C 16.998666666666665 75  0 58.5  0 37.5  C 0 16.499999999999996  16.998666666666665 0  38.63333333333334 0  L 236.88333333333333 0  L 305 75  L 38.63333333333334 75  Z " fill-rule="nonzero" fill="#ec8d26" stroke="none" transform="matrix(1 0 0 1 233 36 )" />
    <path d="M 38.63333333333334 75  C 16.998666666666665 75  0 58.5  0 37.5  C 0 16.499999999999996  16.998666666666665 0  38.63333333333334 0  L 236.88333333333333 0  L 305 75  L 38.63333333333334 75  Z " stroke-width="2" stroke="#ec8d26" fill="none" transform="matrix(1 0 0 1 233 36 )" mask="url(#clip3)" />
  </g>
</svg>